<?xml version="1.0" standalone="no"?>
<!DOCTYPE svg PUBLIC "-//W3C//DTD SVG 20010904//EN"
 "http://www.w3.org/TR/2001/REC-SVG-20010904/DTD/svg10.dtd">
<svg version="1.0" xmlns="http://www.w3.org/2000/svg"
 width="1024.000000pt" height="1024.000000pt" viewBox="0 0 1024.000000 1024.000000"
 preserveAspectRatio="xMidYMid meet">
<metadata>
Created by potrace 1.16, written by Peter Selinger 2001-2019
</metadata>
<g transform="translate(0.000000,1024.000000) scale(0.100000,-0.100000)"
fill="#7C3AED" stroke="none">
<path d="M0 5120 l0 -5120 5120 0 5120 0 0 5120 0 5120 -5120 0 -5120 0 0
-5120z m3280 3317 c16 -8 27 -25 32 -50 20 -99 95 -196 186 -245 225 -120 491
-2 552 246 8 31 18 45 36 52 34 13 1635 13 1782 0 295 -26 570 -125 804 -290
128 -89 318 -281 397 -399 114 -172 185 -333 231 -525 106 -441 40 -924 -175
-1291 -162 -277 -387 -494 -641 -621 l-100 -49 486 -495 c538 -547 730 -748
730 -761 0 -15 -1639 -7 -1675 9 -45 18 -815 801 -808 820 4 10 2 13 -5 8 -6
-3 -14 -2 -17 4 -4 6 -1 9 6 8 21 -5 21 20 0 27 -12 3 -21 10 -21 15 0 6 10 6
24 1 21 -8 23 -7 20 15 -1 13 2 24 8 24 6 0 8 -6 5 -13 -3 -8 1 -14 9 -14 8 0
13 6 10 13 -3 9 1 11 12 7 15 -6 15 -5 3 10 -13 16 -11 16 25 1 35 -15 37 -15
25 0 -12 14 -10 16 8 16 12 0 20 4 17 8 -3 5 1 9 9 9 8 0 12 -4 9 -8 -2 -4 4
-7 14 -6 13 1 18 8 16 24 -2 20 0 21 17 12 21 -11 43 -3 34 12 -4 5 1 9 10 9
10 0 13 -5 9 -12 -6 -10 -5 -10 7 -1 8 6 27 14 42 17 23 4 41 -6 105 -60 l77
-66 -85 83 c-236 228 -696 647 -732 667 -49 26 -85 28 -117 5 -22 -15 -22 -12
7 29 17 24 41 52 54 62 13 9 17 14 11 11 -19 -9 -16 -1 7 20 20 18 21 18 15
-1 -7 -19 -6 -19 9 0 10 13 12 22 6 26 -7 4 -4 12 6 21 15 12 17 12 9 0 -5
-10 -4 -12 4 -7 6 4 9 12 6 17 -10 16 261 332 304 353 19 10 104 15 308 20
392 9 467 30 608 171 79 78 133 171 160 275 22 82 22 226 1 310 -53 207 -237
388 -434 429 -35 7 -255 11 -640 11 -657 0 -639 2 -674 -70 -17 -33 -18 -133
-18 -1661 0 -1387 -2 -1628 -14 -1645 -13 -17 -29 -19 -153 -22 -172 -3 -182
1 -204 84 -20 80 -56 139 -118 197 -78 73 -127 91 -246 92 -85 0 -107 -4 -148
-24 -106 -52 -193 -164 -218 -279 -10 -49 -13 -52 -52 -63 -24 -6 -97 -9 -175
-7 -126 3 -135 4 -153 27 -19 23 -19 72 -19 2200 0 2272 -1 2199 40 2214 32
12 305 7 330 -6z m1247 -5843 c23 -75 85 -144 158 -175 30 -13 55 -27 55 -30
0 -3 -18 -11 -41 -18 -64 -19 -142 -102 -170 -181 -22 -61 -24 -63 -30 -34
-17 87 -117 201 -192 219 -38 10 -42 22 -9 28 42 9 123 67 154 112 15 22 33
61 39 88 7 26 14 47 15 47 2 0 11 -25 21 -56z"/>
<path d="M3646 7864 c-13 -12 -16 -40 -16 -139 0 -117 1 -125 22 -139 29 -21
51 -20 71 2 14 15 17 41 17 136 0 64 -5 126 -10 137 -13 23 -62 26 -84 3z"/>
<path d="M3640 7380 c-6 -12 -9 -69 -8 -142 3 -120 3 -122 29 -137 24 -13 29
-13 53 2 26 17 26 18 26 145 0 86 -4 132 -12 140 -20 20 -76 15 -88 -8z"/>
<path d="M3648 6909 c-16 -9 -18 -27 -18 -139 0 -139 7 -160 54 -160 47 0 56
26 56 161 0 84 -4 129 -12 137 -15 15 -57 15 -80 1z"/>
<path d="M3646 6421 c-14 -15 -16 -37 -14 -142 3 -122 3 -123 29 -138 24 -13
29 -13 53 2 26 17 26 18 26 145 0 86 -4 132 -12 140 -18 18 -63 14 -82 -7z"/>
<path d="M3646 5944 c-13 -12 -16 -40 -16 -139 0 -117 1 -125 22 -139 29 -21
51 -20 71 2 14 15 17 41 17 143 0 84 -4 129 -12 137 -17 17 -64 15 -82 -4z"/>
<path d="M3642 5468 c-8 -8 -12 -52 -12 -133 0 -133 8 -157 53 -157 52 0 57
13 57 151 0 139 -4 151 -55 151 -17 0 -36 -5 -43 -12z"/>
<path d="M3647 4992 c-14 -15 -17 -41 -17 -140 0 -134 7 -152 60 -152 43 0 50
23 50 158 0 102 -3 121 -18 135 -24 22 -55 21 -75 -1z"/>
</g>
</svg>
