<?xml version="1.0" standalone="no"?>
<!DOCTYPE svg PUBLIC "-//W3C//DTD SVG 20010904//EN"
 "http://www.w3.org/TR/2001/REC-SVG-20010904/DTD/svg10.dtd">
<svg version="1.0" xmlns="http://www.w3.org/2000/svg"
 width="510.000000pt" height="510.000000pt" viewBox="0 0 510.000000 510.000000"
 preserveAspectRatio="xMidYMid meet">
<metadata>
Created by potrace 1.16, written by Peter Selinger 2001-2019
</metadata>
<g transform="translate(0.000000,510.000000) scale(0.100000,-0.100000)"
fill="#7C3AED" stroke="none">
<path d="M0 2550 l0 -2550 2550 0 2550 0 0 2550 0 2550 -2550 0 -2550 0 0
-2550z m577 2235 c11 -8 24 -31 28 -52 10 -57 52 -130 101 -180 141 -141 393
-141 533 -1 45 45 94 131 106 186 14 67 -43 64 962 59 801 -3 918 -6 993 -21
270 -53 489 -147 689 -293 42 -31 128 -108 192 -172 228 -228 363 -487 431
-823 19 -97 23 -143 22 -328 0 -180 -4 -235 -22 -335 -60 -316 -199 -598 -409
-826 -146 -159 -261 -248 -430 -332 l-101 -51 532 -540 c293 -298 568 -579
611 -626 l79 -85 -810 -3 c-589 -2 -820 0 -849 9 -32 9 -80 51 -239 208 -299
296 -518 529 -510 543 5 7 2 9 -9 5 -11 -4 -14 -2 -10 9 3 9 -2 14 -16 14 -21
0 -41 27 -41 56 0 9 -8 23 -17 30 -16 12 -16 13 -2 14 9 0 20 10 26 22 8 19
10 20 16 4 5 -11 3 -15 -5 -10 -7 5 -8 3 -4 -5 6 -9 13 -8 26 6 12 12 14 22 8
31 -8 8 -6 12 5 12 8 0 17 -4 19 -9 2 -5 17 -12 33 -16 29 -6 29 -6 11 9 -13
10 -15 16 -7 16 8 0 20 8 28 18 13 15 13 15 3 -6 -10 -21 -10 -23 7 -14 10 6
22 10 28 10 5 0 11 6 13 14 2 9 0 8 -8 -2 -10 -13 -11 -13 -8 0 3 10 16 14 46
12 29 -3 46 2 59 15 23 23 51 17 95 -21 154 -134 -19 36 -355 349 -333 310
-365 335 -423 335 -43 0 -59 15 -29 26 8 4 15 11 15 16 0 13 48 58 57 55 3 -1
14 13 24 31 10 17 16 32 13 32 -6 0 49 69 116 146 19 22 64 76 100 118 36 43
78 85 94 93 22 12 86 16 300 19 302 6 382 17 481 67 88 44 202 162 249 257
146 299 34 664 -249 811 -124 65 -117 64 -780 64 -663 0 -630 3 -672 -62 -17
-26 -18 -119 -21 -1662 -2 -1500 -4 -1636 -19 -1653 -14 -16 -34 -18 -160 -18
-162 0 -174 5 -187 76 -18 93 -105 209 -193 256 -140 76 -304 53 -422 -57 -61
-58 -96 -115 -116 -192 -8 -32 -23 -64 -32 -70 -12 -9 -63 -13 -169 -13 -135
0 -154 2 -175 19 l-24 19 0 2182 0 2182 24 19 c21 17 40 19 175 19 117 0 156
-3 173 -15z"/>
<path d="M940 4220 c-18 -18 -20 -33 -20 -140 0 -107 2 -122 20 -140 28 -28
55 -25 80 7 20 25 21 37 18 146 -3 104 -5 120 -22 133 -27 19 -52 18 -76 -6z"/>
<path d="M940 3740 c-18 -18 -20 -33 -20 -138 0 -125 6 -144 47 -157 17 -4 30
1 49 20 25 25 26 28 22 146 -3 106 -5 122 -22 135 -27 19 -52 18 -76 -6z"/>
<path d="M942 3264 c-21 -14 -22 -22 -22 -143 0 -111 2 -130 18 -144 19 -18
49 -22 68 -9 26 17 33 54 31 167 -2 102 -4 118 -21 131 -25 18 -46 18 -74 -2z"/>
<path d="M946 2779 c-25 -20 -26 -23 -26 -140 0 -106 2 -121 20 -139 26 -26
46 -25 75 5 24 23 25 30 25 140 0 102 -2 117 -20 135 -25 25 -41 25 -74 -1z"/>
<path d="M940 2300 c-18 -18 -20 -33 -20 -140 0 -107 2 -122 20 -140 27 -27
54 -25 78 5 18 22 20 39 19 146 -2 107 -4 122 -21 135 -27 19 -52 18 -76 -6z"/>
<path d="M942 1824 c-21 -14 -22 -22 -22 -139 0 -139 8 -158 64 -153 44 4 54
32 55 159 2 97 0 110 -19 129 -24 24 -48 25 -78 4z"/>
<path d="M937 1342 c-25 -27 -25 -253 -1 -277 25 -24 76 -16 91 15 19 38 17
229 -3 258 -19 27 -64 29 -87 4z"/>
</g>
</svg>
